Coordinates
version=1
nRows=13
nColumns=38
inDegrees=no

Units are S.I. units (second, meters, Newtons, ...)
If the header above contains a line with 'inDegrees', this indicates whether rotational values are in degrees (yes) or radians (no).

endheader
time	pelvis_tilt	pelvis_list	pelvis_rotation	pelvis_tx	pelvis_ty	pelvis_tz	hip_flexion_r	hip_adduction_r	hip_rotation_r	knee_angle_r	ankle_angle_r	subtalar_angle_r	mtp_angle_r	hip_flexion_l	hip_adduction_l	hip_rotation_l	knee_angle_l	ankle_angle_l	subtalar_angle_l	mtp_angle_l	lumbar_extension	lumbar_bending	lumbar_rotation	arm_flex_r	arm_add_r	arm_rot_r	elbow_flex_r	pro_sup_r	wrist_flex_r	wrist_dev_r	arm_flex_l	arm_add_l	arm_rot_l	elbow_flex_l	pro_sup_l	wrist_flex_l	wrist_dev_l
20.59	2.77238	1.35643	-1.09118	0.708978	-0.226221	0.950053	-0.121173	0.034493	0.0397278	0.281057	-0.245202	0	0	-0.0879455	-0.112005	-0.0930277	0.46526	-0.108691	0	0	-0.398184	0.0549376	0.0551105	0.558398	-0.619279	0.107191	1.4313	1.5708	0	0	0.883915	-0.283889	0.653012	1.2279	1.5708	0	0
20.6	2.78023	1.35566	-1.09604	0.70899	-0.225329	0.9501	-0.130439	0.0304089	0.0373279	0.265559	-0.254748	0	0	-0.0912092	-0.111535	-0.091733	0.463262	-0.108886	0	0	-0.395555	0.0557297	0.0557328	0.553374	-0.622004	0.106053	1.4322	1.5708	0	0	0.8782	-0.27708	0.647826	1.22293	1.5708	0	0
20.61	2.78893	1.35441	-1.10209	0.709134	-0.224409	0.950153	-0.140547	0.0263663	0.0341651	0.249553	-0.27007	0	0	-0.0951687	-0.111308	-0.0907342	0.461122	-0.10906	0	0	-0.39351	0.0563584	0.0571679	0.547422	-0.62489	0.10372	1.43395	1.5708	0	0	0.872234	-0.270473	0.642817	1.21929	1.5708	0	0
20.62	2.79773	1.35314	-1.10864	0.709435	-0.223421	0.95016	-0.151295	0.0224072	0.0311689	0.232495	-0.289379	0	0	-0.0992406	-0.111268	-0.0903979	0.459141	-0.108965	0	0	-0.391503	0.0566971	0.0593814	0.540455	-0.627846	0.100341	1.43659	1.5708	0	0	0.865218	-0.263785	0.636774	1.2176	1.5708	0	0
20.63	2.80724	1.35178	-1.11605	0.709888	-0.222408	0.950228	-0.163073	0.0192823	0.0291256	0.214071	-0.307186	0	0	-0.10373	-0.11113	-0.0898033	0.45663	-0.109046	0	0	-0.389759	0.0566965	0.0622625	0.532347	-0.630752	0.0956202	1.44	1.5708	0	0	0.857569	-0.257308	0.630079	1.21717	1.5708	0	0
20.64	2.81645	1.35082	-1.12395	0.710619	-0.221322	0.950263	-0.174835	0.0175922	0.0288274	0.195464	-0.319531	0	0	-0.108179	-0.111031	-0.0898978	0.453981	-0.109036	0	0	-0.387535	0.0559127	0.0663071	0.522798	-0.633252	0.0893235	1.44423	1.5708	0	0	0.849486	-0.251231	0.623689	1.21724	1.5708	0	0
20.65	2.82496	1.35029	-1.13209	0.711612	-0.220156	0.950239	-0.185551	0.016925	0.0287802	0.178033	-0.327699	0	0	-0.112493	-0.110972	-0.0909405	0.451247	-0.108798	0	0	-0.38487	0.0542879	0.0715427	0.511666	-0.634962	0.0809028	1.44928	1.5708	0	0	0.841166	-0.245858	0.618452	1.2183	1.5708	0	0
20.66	2.8313	1.34991	-1.13879	0.71284	-0.218941	0.950236	-0.194052	0.0176755	0.0276266	0.165364	-0.331569	0	0	-0.116741	-0.111347	-0.0926953	0.448455	-0.108634	0	0	-0.381951	0.0521971	0.0773629	0.499595	-0.635866	0.0715613	1.45459	1.5708	0	0	0.831824	-0.242416	0.613673	1.22246	1.5708	0	0
20.67	2.83737	1.34905	-1.14519	0.714229	-0.217645	0.950341	-0.203977	0.0193686	0.0258846	0.149954	-0.336891	0	0	-0.122016	-0.112017	-0.0945287	0.444433	-0.108806	0	0	-0.379617	0.0501541	0.0838672	0.484999	-0.635959	0.0590276	1.46204	1.5708	0	0	0.81976	-0.239451	0.605877	1.23075	1.5708	0	0
20.68	2.84214	1.34748	-1.15099	0.715649	-0.216394	0.950564	-0.214651	0.0214998	0.025029	0.134279	-0.342925	0	0	-0.128407	-0.113008	-0.0970401	0.439504	-0.109112	0	0	-0.378175	0.0487228	0.0910167	0.469994	-0.635594	0.0456673	1.47097	1.5708	0	0	0.805078	-0.237799	0.595282	1.24337	1.5708	0	0
20.69	2.85162	1.34427	-1.16147	0.717066	-0.215178	0.950802	-0.228463	0.0230869	0.0243146	0.116428	-0.349587	0	0	-0.137116	-0.113612	-0.099961	0.434251	-0.109283	0	0	-0.378442	0.047948	0.0960951	0.458119	-0.63342	0.034958	1.47954	1.5708	0	0	0.786164	-0.238684	0.579286	1.2606	1.5708	0	0
20.7	2.86119	1.34158	-1.17202	0.7185	-0.213885	0.950965	-0.241803	0.0238737	0.0236831	0.0991119	-0.355863	0	0	-0.14534	-0.113898	-0.102346	0.429414	-0.109162	0	0	-0.377885	0.0467994	0.0997185	0.447046	-0.629927	0.0254589	1.48753	1.5708	0	0	0.764451	-0.241711	0.562052	1.28094	1.5708	0	0
20.71	2.86844	1.33904	-1.18017	0.719886	-0.21258	0.951127	-0.254911	0.024407	0.0242302	0.0812981	-0.362746	0	0	-0.153039	-0.114506	-0.104288	0.424677	-0.109017	0	0	-0.377054	0.0462729	0.102227	0.436011	-0.625264	0.0161274	1.49641	1.5708	0	0	0.740025	-0.246344	0.543671	1.30396	1.5708	0	0
